<?xml version="1.0" encoding="UTF-8" ?>
<svg version="1.1" width="32" height="32" xmlns="http://www.w3.org/2000/svg" shape-rendering="crispEdges">
<rect x="12" y="2" width="8" height="1" fill="#FFFFFF" />
<rect x="10" y="3" width="2" height="1" fill="#FFFFFF" />
<rect x="12" y="3" width="8" height="1" fill="#000000" />
<rect x="20" y="3" width="2" height="1" fill="#FFFFFF" />
<rect x="8" y="4" width="2" height="1" fill="#FFFFFF" />
<rect x="10" y="4" width="2" height="1" fill="#000000" />
<rect x="12" y="4" width="8" height="1" fill="#F6D66E" />
<rect x="20" y="4" width="2" height="1" fill="#000000" />
<rect x="22" y="4" width="2" height="1" fill="#FFFFFF" />
<rect x="7" y="5" width="1" height="1" fill="#FFFFFF" />
<rect x="8" y="5" width="2" height="1" fill="#000000" />
<rect x="10" y="5" width="3" height="1" fill="#F6D66E" />
<rect x="13" y="5" width="7" height="2" fill="#E1B322" />
<rect x="20" y="5" width="2" height="1" fill="#F6D66E" />
<rect x="22" y="5" width="2" height="1" fill="#000000" />
<rect x="24" y="5" width="1" height="1" fill="#FFFFFF" />
<rect x="6" y="6" width="1" height="1" fill="#FFFFFF" />
<rect x="7" y="6" width="1" height="1" fill="#000000" />
<rect x="8" y="6" width="3" height="1" fill="#F6D66E" />
<rect x="11" y="6" width="2" height="4" fill="#E1B322" />
<rect x="20" y="6" width="2" height="5" fill="#E1B322" />
<rect x="22" y="6" width="1" height="1" fill="#F6D66E" />
<rect x="23" y="6" width="1" height="11" fill="#CB9F13" />
<rect x="24" y="6" width="1" height="1" fill="#000000" />
<rect x="25" y="6" width="1" height="1" fill="#FFFFFF" />
<rect x="5" y="7" width="1" height="1" fill="#FFFFFF" />
<rect x="6" y="7" width="1" height="1" fill="#000000" />
<rect x="7" y="7" width="3" height="1" fill="#F6D66E" />
<rect x="10" y="7" width="1" height="6" fill="#E1B322" />
<rect x="13" y="7" width="2" height="1" fill="#E1B322" />
<rect x="15" y="7" width="2" height="1" fill="#D4CFC3" />
<rect x="17" y="7" width="3" height="1" fill="#E1B322" />
<rect x="22" y="7" width="1" height="2" fill="#E1B322" />
<rect x="24" y="7" width="1" height="9" fill="#CB9F13" />
<rect x="25" y="7" width="1" height="1" fill="#000000" />
<rect x="26" y="7" width="1" height="1" fill="#FFFFFF" />
<rect x="4" y="8" width="1" height="2" fill="#FFFFFF" />
<rect x="5" y="8" width="1" height="2" fill="#000000" />
<rect x="6" y="8" width="3" height="1" fill="#F6D66E" />
<rect x="9" y="8" width="1" height="10" fill="#E1B322" />
<rect x="13" y="8" width="1" height="1" fill="#E1B322" />
<rect x="14" y="8" width="1" height="1" fill="#D4CFC3" />
<rect x="15" y="8" width="2" height="1" fill="#E9CA66" />
<rect x="17" y="8" width="1" height="1" fill="#D4CFC3" />
<rect x="18" y="8" width="2" height="1" fill="#E1B322" />
<rect x="25" y="8" width="1" height="7" fill="#CB9F13" />
<rect x="26" y="8" width="1" height="2" fill="#000000" />
<rect x="27" y="8" width="1" height="2" fill="#FFFFFF" />
<rect x="6" y="9" width="2" height="1" fill="#F6D66E" />
<rect x="8" y="9" width="1" height="10" fill="#E1B322" />
<rect x="13" y="9" width="1" height="1" fill="#D4CFC3" />
<rect x="14" y="9" width="1" height="1" fill="#E9CA66" />
<rect x="15" y="9" width="2" height="4" fill="#E1B322" />
<rect x="17" y="9" width="1" height="1" fill="#E9CA66" />
<rect x="18" y="9" width="1" height="1" fill="#D4CFC3" />
<rect x="19" y="9" width="1" height="1" fill="#E1B322" />
<rect x="22" y="9" width="1" height="9" fill="#CB9F13" />
<rect x="3" y="10" width="1" height="2" fill="#FFFFFF" />
<rect x="4" y="10" width="1" height="2" fill="#000000" />
<rect x="5" y="10" width="2" height="1" fill="#F6D66E" />
<rect x="7" y="10" width="1" height="13" fill="#E1B322" />
<rect x="11" y="10" width="1" height="2" fill="#E1B322" />
<rect x="12" y="10" width="1" height="2" fill="#D4CFC3" />
<rect x="13" y="10" width="1" height="2" fill="#E9CA66" />
<rect x="14" y="10" width="1" height="4" fill="#E1B322" />
<rect x="17" y="10" width="1" height="4" fill="#E1B322" />
<rect x="18" y="10" width="1" height="2" fill="#E9CA66" />
<rect x="19" y="10" width="1" height="2" fill="#D4CFC3" />
<rect x="26" y="10" width="1" height="11" fill="#B68E13" />
<rect x="27" y="10" width="1" height="2" fill="#000000" />
<rect x="28" y="10" width="1" height="2" fill="#FFFFFF" />
<rect x="5" y="11" width="1" height="2" fill="#F6D66E" />
<rect x="6" y="11" width="1" height="10" fill="#E1B322" />
<rect x="20" y="11" width="1" height="1" fill="#E1B322" />
<rect x="21" y="11" width="1" height="2" fill="#CB9F13" />
<rect x="2" y="12" width="1" height="7" fill="#FFFFFF" />
<rect x="3" y="12" width="1" height="7" fill="#000000" />
<rect x="4" y="12" width="1" height="7" fill="#F6D66E" />
<rect x="11" y="12" width="1" height="1" fill="#D4CFC3" />
<rect x="12" y="12" width="1" height="1" fill="#E9CA66" />
<rect x="13" y="12" width="1" height="7" fill="#E1B322" />
<rect x="18" y="12" width="1" height="2" fill="#E1B322" />
<rect x="19" y="12" width="1" height="1" fill="#E1BF55" />
<rect x="20" y="12" width="1" height="1" fill="#BEBAAF" />
<rect x="27" y="12" width="1" height="7" fill="#B68E13" />
<rect x="28" y="12" width="1" height="7" fill="#000000" />
<rect x="29" y="12" width="1" height="7" fill="#FFFFFF" />
<rect x="5" y="13" width="1" height="6" fill="#E1B322" />
<rect x="10" y="13" width="1" height="5" fill="#D4CFC3" />
<rect x="11" y="13" width="1" height="8" fill="#E9CA66" />
<rect x="12" y="13" width="1" height="5" fill="#E1B322" />
<rect x="15" y="13" width="2" height="1" fill="#E9CA66" />
<rect x="19" y="13" width="1" height="5" fill="#CB9F13" />
<rect x="20" y="13" width="1" height="8" fill="#E1BF55" />
<rect x="21" y="13" width="1" height="5" fill="#BEBAAF" />
<rect x="14" y="14" width="2" height="1" fill="#E9CA66" />
<rect x="16" y="14" width="1" height="1" fill="#D8D6D1" />
<rect x="17" y="14" width="1" height="3" fill="#E1BF55" />
<rect x="18" y="14" width="1" height="5" fill="#CB9F13" />
<rect x="14" y="15" width="1" height="2" fill="#E9CA66" />
<rect x="15" y="15" width="1" height="1" fill="#D8D6D1" />
<rect x="16" y="15" width="1" height="3" fill="#E1BF55" />
<rect x="25" y="15" width="1" height="8" fill="#B68E13" />
<rect x="15" y="16" width="1" height="2" fill="#E1BF55" />
<rect x="24" y="16" width="1" height="8" fill="#B68E13" />
<rect x="14" y="17" width="1" height="2" fill="#E1B322" />
<rect x="17" y="17" width="1" height="3" fill="#CB9F13" />
<rect x="23" y="17" width="1" height="2" fill="#B68E13" />
<rect x="9" y="18" width="1" height="1" fill="#D4CFC3" />
<rect x="10" y="18" width="1" height="3" fill="#E9CA66" />
<rect x="12" y="18" width="1" height="1" fill="#D8D6D1" />
<rect x="15" y="18" width="2" height="2" fill="#CB9F13" />
<rect x="19" y="18" width="1" height="1" fill="#BEBAAF" />
<rect x="21" y="18" width="1" height="3" fill="#E1BF55" />
<rect x="22" y="18" width="1" height="1" fill="#9C988F" />
<rect x="3" y="19" width="1" height="2" fill="#FFFFFF" />
<rect x="4" y="19" width="1" height="2" fill="#000000" />
<rect x="5" y="19" width="1" height="2" fill="#F6D66E" />
<rect x="8" y="19" width="1" height="3" fill="#D4CFC3" />
<rect x="9" y="19" width="1" height="3" fill="#E9CA66" />
<rect x="12" y="19" width="1" height="2" fill="#E9CA66" />
<rect x="13" y="19" width="1" height="1" fill="#BEBAAF" />
<rect x="14" y="19" width="1" height="1" fill="#CB9F13" />
<rect x="18" y="19" width="1" height="1" fill="#BEBAAF" />
<rect x="19" y="19" width="1" height="2" fill="#E1BF55" />
<rect x="22" y="19" width="1" height="3" fill="#E1BF55" />
<rect x="23" y="19" width="1" height="3" fill="#9C988F" />
<rect x="27" y="19" width="1" height="2" fill="#000000" />
<rect x="28" y="19" width="1" height="2" fill="#FFFFFF" />
<rect x="13" y="20" width="1" height="1" fill="#E9CA66" />
<rect x="14" y="20" width="1" height="1" fill="#BEBAAF" />
<rect x="15" y="20" width="2" height="4" fill="#E1BF55" />
<rect x="17" y="20" width="1" height="1" fill="#BEBAAF" />
<rect x="18" y="20" width="1" height="1" fill="#E1BF55" />
<rect x="4" y="21" width="1" height="2" fill="#FFFFFF" />
<rect x="5" y="21" width="1" height="2" fill="#000000" />
<rect x="6" y="21" width="1" height="2" fill="#F6D66E" />
<rect x="10" y="21" width="3" height="2" fill="#CB9F13" />
<rect x="13" y="21" width="1" height="2" fill="#9C988F" />
<rect x="14" y="21" width="1" height="2" fill="#E1BF55" />
<rect x="17" y="21" width="1" height="2" fill="#E1BF55" />
<rect x="18" y="21" width="1" height="2" fill="#9C988F" />
<rect x="19" y="21" width="3" height="5" fill="#B68E13" />
<rect x="26" y="21" width="1" height="2" fill="#000000" />
<rect x="27" y="21" width="1" height="2" fill="#FFFFFF" />
<rect x="8" y="22" width="2" height="2" fill="#CB9F13" />
<rect x="22" y="22" width="2" height="3" fill="#B68E13" />
<rect x="5" y="23" width="1" height="1" fill="#FFFFFF" />
<rect x="6" y="23" width="1" height="1" fill="#000000" />
<rect x="7" y="23" width="1" height="1" fill="#CB9F13" />
<rect x="10" y="23" width="2" height="1" fill="#CB9F13" />
<rect x="12" y="23" width="2" height="4" fill="#B68E13" />
<rect x="14" y="23" width="1" height="2" fill="#9C988F" />
<rect x="17" y="23" width="1" height="2" fill="#9C988F" />
<rect x="18" y="23" width="1" height="1" fill="#D4B144" />
<rect x="25" y="23" width="1" height="1" fill="#000000" />
<rect x="26" y="23" width="1" height="1" fill="#FFFFFF" />
<rect x="6" y="24" width="1" height="1" fill="#FFFFFF" />
<rect x="7" y="24" width="1" height="1" fill="#000000" />
<rect x="8" y="24" width="4" height="1" fill="#B68E13" />
<rect x="15" y="24" width="2" height="3" fill="#B68E13" />
<rect x="18" y="24" width="1" height="3" fill="#B68E13" />
<rect x="24" y="24" width="1" height="1" fill="#000000" />
<rect x="25" y="24" width="1" height="1" fill="#FFFFFF" />
<rect x="7" y="25" width="1" height="1" fill="#FFFFFF" />
<rect x="8" y="25" width="2" height="1" fill="#000000" />
<rect x="10" y="25" width="2" height="1" fill="#B68E13" />
<rect x="14" y="25" width="1" height="2" fill="#B68E13" />
<rect x="17" y="25" width="1" height="2" fill="#B68E13" />
<rect x="22" y="25" width="2" height="1" fill="#000000" />
<rect x="24" y="25" width="1" height="1" fill="#FFFFFF" />
<rect x="8" y="26" width="2" height="1" fill="#FFFFFF" />
<rect x="10" y="26" width="2" height="1" fill="#000000" />
<rect x="19" y="26" width="1" height="1" fill="#B68E13" />
<rect x="20" y="26" width="2" height="1" fill="#000000" />
<rect x="22" y="26" width="2" height="1" fill="#FFFFFF" />
<rect x="10" y="27" width="2" height="1" fill="#FFFFFF" />
<rect x="12" y="27" width="8" height="1" fill="#000000" />
<rect x="20" y="27" width="2" height="1" fill="#FFFFFF" />
<rect x="12" y="28" width="8" height="1" fill="#FFFFFF" />
</svg>